<?xml version="1.0" encoding="UTF-8" standalone="no" ?>
<!DOCTYPE svg PUBLIC "-//W3C//DTD SVG 1.1//EN" "http://www.w3.org/Graphics/SVG/1.1/DTD/svg11.dtd">
<svg xmlns="http://www.w3.org/2000/svg" xmlns:xlink="http://www.w3.org/1999/xlink" version="1.1" width="1080" height="1080" viewBox="0 0 1080 1080" xml:space="preserve">
<desc>Created with Fabric.js 4.2.0</desc>
<defs>
</defs>
<g transform="matrix(1 0 0 1 540 540)" id="5cd4b596-fe73-4019-9276-1eed40a507c9"  >
<rect style="stroke: none; stroke-width: 1; stroke-dasharray: none; stroke-linecap: butt; stroke-dashoffset: 0; stroke-linejoin: miter; stroke-miterlimit: 4; fill: rgb(255,255,255); fill-rule: nonzero; opacity: 1; visibility: hidden;" vector-effect="non-scaling-stroke"  x="-540" y="-540" rx="0" ry="0" width="1080" height="1080" />
</g>
<g transform="matrix(1 0 0 1 540 540)" id="3fa1cc40-1092-40e3-ad67-3fa66ef925be"  >
</g>
<g transform="matrix(1 0 0 1 433.48 490)" style="" id="482f3140-8cd9-440e-b8d9-9e19828e6855"  >
		<text xml:space="preserve" font-family="Courgette" font-size="105" font-style="normal" font-weight="900" style="stroke: none; stroke-width: 1; stroke-dasharray: none; stroke-linecap: butt; stroke-dashoffset: 0; stroke-linejoin: miter; stroke-miterlimit: 4; fill: rgb(0,0,0); fill-rule: nonzero; opacity: 1; white-space: pre;" ><tspan x="-147.66" y="32.98" >Front-</tspan></text>
</g>
<g transform="matrix(1 0 0 1 667.23 489.44)" style="" id="47e9cb94-e764-4ffe-b283-7966e9767bbd"  >
		<text xml:space="preserve" font-family="Courgette" font-size="104" font-style="normal" font-weight="900" style="stroke: none; stroke-width: 1; stroke-dasharray: none; stroke-linecap: butt; stroke-dashoffset: 0; stroke-linejoin: miter; stroke-miterlimit: 4; fill: rgb(144,98,1); fill-rule: nonzero; opacity: 1; white-space: pre;" ><tspan x="-100.62" y="32.67" style="white-space: pre; "> End</tspan></text>
</g>
<g transform="matrix(1 0 0 1 495.61 620.69)" style="" id="d93191b6-a743-4130-9e8c-3c69718b9c8b"  >
		<text xml:space="preserve" font-family="Courgette" font-size="105" font-style="normal" font-weight="900" style="stroke: none; stroke-width: 1; stroke-dasharray: none; stroke-linecap: butt; stroke-dashoffset: 0; stroke-linejoin: miter; stroke-miterlimit: 4; fill: rgb(0,0,0); fill-rule: nonzero; opacity: 1; white-space: pre;" ><tspan x="-226.18" y="32.98" >Developer</tspan></text>
</g>
<g transform="matrix(0.38 0 0 0.38 736.75 633.41)" id="f14597c6-ac66-472e-89f7-4f6ae7ff9a8d"  >
<circle style="stroke: rgb(0,0,0); stroke-width: 0; stroke-dasharray: none; stroke-linecap: butt; stroke-dashoffset: 0; stroke-linejoin: miter; stroke-miterlimit: 4; fill: rgb(189,16,16); fill-rule: nonzero; opacity: 1;" vector-effect="non-scaling-stroke"  cx="0" cy="0" r="35" />
</g>
<g transform="matrix(0 1.42 -1.42 0 217.44 540)"  >
<g style="" vector-effect="non-scaling-stroke"   >
		<g transform="matrix(1 0 0 1 11.72 -10.99)"  >
<path style="stroke: none; stroke-width: 1; stroke-dasharray: none; stroke-linecap: butt; stroke-dashoffset: 0; stroke-linejoin: miter; stroke-miterlimit: 4; fill: rgb(13,99,85); fill-rule: nonzero; opacity: 1;" vector-effect="non-scaling-stroke"  transform=" translate(-61.72, -39)" d="M 61.661 14.239 C 75.599 14.239 86.982 25.568 86.982 39.506 C 86.982 50.999 79.318 60.716 68.82300000000001 63.769000000000005 L 55.941 41.448 L 51.443000000000005 49.333 L 51.443000000000005 37.061 L 36.451 37.061 C 37.729 24.235 48.501 14.239 61.661 14.239 z" stroke-linecap="round" />
</g>
		<g transform="matrix(1 0 0 1 -19.04 7.03)"  >
<polygon style="stroke: none; stroke-width: 1; stroke-dasharray: none; stroke-linecap: butt; stroke-dashoffset: 0; stroke-linejoin: miter; stroke-miterlimit: 4; fill: rgb(13,99,85); fill-rule: nonzero; opacity: 1;" vector-effect="non-scaling-stroke"  points="-17.94,-17.41 17.94,-17.41 17.94,-3.31 11.49,7.86 6,17.41 -17.94,17.41 " />
</g>
		<g transform="matrix(1 0 0 1 5.97 16.16)"  >
<polygon style="stroke: none; stroke-width: 1; stroke-dasharray: none; stroke-linecap: butt; stroke-dashoffset: 0; stroke-linejoin: miter; stroke-miterlimit: 4; fill: rgb(13,99,85); fill-rule: nonzero; opacity: 1;" vector-effect="non-scaling-stroke"  points="-0.03,-19.6 11.3,0 22.63,19.6 -22.63,19.6 -11.35,0 " />
</g>
</g>
</g>
<g transform="matrix(2.52 0 0 2.52 696.88 474.9)"  >
<path style="stroke: rgb(13,99,85); stroke-width: 3; stroke-dasharray: none; stroke-linecap: butt; stroke-dashoffset: 0; stroke-linejoin: miter; stroke-miterlimit: 4; fill: rgb(33,206,228); fill-rule: nonzero; opacity: 1;" vector-effect="non-scaling-stroke"  transform=" translate(-50, -50)" d="M 50 92.875 C 26.358 92.875 7.125 73.642 7.125 50 C 7.125 26.358000000000004 26.358 7.125 50 7.125 C 73.642 7.125 92.875 26.358 92.875 50 C 92.875 73.642 73.642 92.875 50 92.875 z M 50 9.125 C 27.461 9.125 9.125 27.461 9.125 50 C 9.125 72.538 27.461 90.875 50 90.875 C 72.538 90.875 90.875 72.538 90.875 50 C 90.875 27.461 72.538 9.125 50 9.125 z" stroke-linecap="round" />
</g>
<g transform="matrix(1.16 0 0 1.16 335.14 718.23)" id="9d9092ae-bd3e-4325-bb51-18139404a7eb"  >
<circle style="stroke: rgb(0,0,0); stroke-width: 0; stroke-dasharray: none; stroke-linecap: butt; stroke-dashoffset: 0; stroke-linejoin: miter; stroke-miterlimit: 4; fill: rgb(88,86,12); fill-rule: nonzero; opacity: 1;" vector-effect="non-scaling-stroke"  cx="0" cy="0" r="35" />
</g>
<g transform="matrix(0.79 0 0 0.79 459.75 402.73)" id="1fef2673-f4d6-4ddb-b6b0-6e25933c4144"  >
<circle style="stroke: rgb(0,0,0); stroke-width: 0; stroke-dasharray: none; stroke-linecap: butt; stroke-dashoffset: 0; stroke-linejoin: miter; stroke-miterlimit: 4; fill: rgb(228,96,96); fill-rule: nonzero; opacity: 1;" vector-effect="non-scaling-stroke"  cx="0" cy="0" r="35" />
</g>
</svg>